<svg width="448" height="214" viewBox="0 0 448 214" version="1.1" xmlns="http://www.w3.org/2000/svg" xmlns:xlink="http://www.w3.org/1999/xlink">
<title>Text Only</title>
<desc>Created using Figma</desc>
<g id="Canvas" transform="translate(-1478 1768)">
<g id="Text Only">
<g id="BARTHELME">
<use xlink:href="#path0_fill" transform="translate(1478.81 -1643.6)" fill="#FFFCF7"/>
<use xlink:href="#path1_fill" transform="translate(1478.81 -1643.6)" fill="#FFFCF7"/>
<use xlink:href="#path2_fill" transform="translate(1478.81 -1643.6)" fill="#FFFCF7"/>
<use xlink:href="#path3_fill" transform="translate(1478.81 -1643.6)" fill="#FFFCF7"/>
<use xlink:href="#path4_fill" transform="translate(1478.81 -1643.6)" fill="#FFFCF7"/>
<use xlink:href="#path5_fill" transform="translate(1478.81 -1643.6)" fill="#FFFCF7"/>
<use xlink:href="#path6_fill" transform="translate(1478.81 -1643.6)" fill="#FFFCF7"/>
<use xlink:href="#path7_fill" transform="translate(1478.81 -1643.6)" fill="#FFFCF7"/>
<use xlink:href="#path8_fill" transform="translate(1478.81 -1643.6)" fill="#FFFCF7"/>
</g>
<g id="MAXIME">
<use xlink:href="#path9_fill" transform="translate(1478.76 -1767.73)" fill="#FFFCF7"/>
<use xlink:href="#path10_fill" transform="translate(1478.76 -1767.73)" fill="#FFFCF7"/>
<use xlink:href="#path11_fill" transform="translate(1478.76 -1767.73)" fill="#FFFCF7"/>
<use xlink:href="#path12_fill" transform="translate(1478.76 -1767.73)" fill="#FFFCF7"/>
<use xlink:href="#path13_fill" transform="translate(1478.76 -1767.73)" fill="#FFFCF7"/>
<use xlink:href="#path14_fill" transform="translate(1478.76 -1767.73)" fill="#FFFCF7"/>
</g>
</g>
</g>
<defs>
<path id="path0_fill" d="M 0 0L 0 89.6L 20.608 89.6C 34.56 89.6 41.088 82.048 41.088 68.608L 41.088 61.056C 41.088 51.2 37.76 44.288 29.056 41.856C 36.864 39.424 39.552 33.536 39.552 24.064L 39.552 19.84C 39.552 6.656 34.048 0 20.096 0L 0 0ZM 9.984 38.016L 9.984 9.088L 19.84 9.088C 27.008 9.088 29.696 12.928 29.696 20.864L 29.696 26.112C 29.696 35.456 25.6 38.016 17.664 38.016L 9.984 38.016ZM 9.984 80.512L 9.984 47.104L 18.688 47.104C 27.264 47.104 31.232 50.432 31.232 60.416L 31.232 68.352C 31.232 76.672 27.904 80.512 20.608 80.512L 9.984 80.512Z"/>
<path id="path1_fill" d="M 82.893 71.552L 86.349 89.6L 96.333 89.6L 79.181 0L 64.717 0L 47.565 89.6L 56.781 89.6L 60.237 71.552L 82.893 71.552ZM 71.373 11.264L 81.485 62.976L 61.517 62.976L 71.373 11.264Z"/>
<path id="path2_fill" d="M 104.125 0L 104.125 89.6L 114.109 89.6L 114.109 51.328L 121.149 51.328C 129.469 51.328 134.205 54.528 134.205 64.64L 134.205 78.72C 134.205 84.736 134.717 87.04 135.869 89.6L 145.981 89.6C 144.317 86.528 144.189 82.816 144.189 78.848L 144.189 64.896C 144.189 55.296 141.117 48.64 132.925 46.208C 140.605 43.776 144.061 37.632 144.061 27.776L 144.061 20.48C 144.061 7.168 138.173 0 124.093 0L 104.125 0ZM 114.109 42.24L 114.109 9.088L 123.837 9.088C 131.261 9.088 134.205 13.312 134.205 21.376L 134.205 29.952C 134.205 39.68 129.469 42.24 121.533 42.24L 114.109 42.24Z"/>
<path id="path3_fill" d="M 177.54 89.6L 177.54 9.088L 194.052 9.088L 194.052 0L 151.044 0L 151.044 9.088L 167.556 9.088L 167.556 89.6L 177.54 89.6Z"/>
<path id="path4_fill" d="M 233 49.28L 233 89.6L 242.984 89.6L 242.984 0L 233 0L 233 40.32L 210.984 40.32L 210.984 0L 201 0L 201 89.6L 210.984 89.6L 210.984 49.28L 233 49.28Z"/>
<path id="path5_fill" d="M 263.234 39.68L 263.234 9.088L 290.114 9.088L 290.114 0L 253.25 0L 253.25 89.6L 290.114 89.6L 290.114 80.512L 263.234 80.512L 263.234 48.64L 285.122 48.64L 285.122 39.68L 263.234 39.68Z"/>
<path id="path6_fill" d="M 334.959 89.6L 334.959 80.512L 309.359 80.512L 309.359 0L 299.375 0L 299.375 89.6L 334.959 89.6Z"/>
<path id="path7_fill" d="M 389.732 17.536L 389.732 89.6L 399.204 89.6L 399.204 0L 385.252 0L 371.044 71.552L 356.324 0L 342.372 0L 342.372 89.6L 351.076 89.6L 351.076 18.176L 365.924 89.472L 375.524 89.472L 389.732 17.536Z"/>
<path id="path8_fill" d="M 419.484 39.68L 419.484 9.088L 446.364 9.088L 446.364 0L 409.5 0L 409.5 89.6L 446.364 89.6L 446.364 80.512L 419.484 80.512L 419.484 48.64L 441.372 48.64L 441.372 39.68L 419.484 39.68Z"/>
<path id="path9_fill" d="M 49.92 4.352L 49.92 89.728L 52.736 89.728L 52.736 0.127998L 48.384 0.127998L 26.368 85.12L 4.352 0.127998L 0 0.127998L 0 89.728L 2.56 89.728L 2.56 4.352L 24.704 89.472L 27.904 89.472L 49.92 4.352Z"/>
<path id="path10_fill" d="M 134.04 68.608L 139.288 89.728L 142.104 89.728L 119.96 0L 115.992 0L 94.36 89.728L 96.92 89.728L 102.168 68.608L 134.04 68.608ZM 117.912 3.328L 133.528 66.048L 102.68 66.048L 117.912 3.328Z"/>
<path id="path11_fill" d="M 227.642 89.728L 230.714 89.728L 208.954 43.136L 229.306 0.127998L 226.49 0.127998L 207.162 40.704L 187.834 0.127998L 184.89 0.127998L 205.242 43.136L 183.354 89.728L 186.298 89.728L 206.906 45.696L 227.642 89.728Z"/>
<path id="path12_fill" d="M 272.357 0.127998L 272.357 89.728L 275.173 89.728L 275.173 0.127998L 272.357 0.127998Z"/>
<path id="path13_fill" d="M 367.021 4.352L 367.021 89.728L 369.837 89.728L 369.837 0.127998L 365.485 0.127998L 343.469 85.12L 321.453 0.127998L 317.101 0.127998L 317.101 89.728L 319.661 89.728L 319.661 4.352L 341.805 89.472L 345.005 89.472L 367.021 4.352Z"/>
<path id="path14_fill" d="M 414.661 43.008L 414.661 2.81599L 446.021 2.81599L 446.021 0.127998L 411.845 0.127998L 411.845 89.728L 446.021 89.728L 446.021 87.04L 414.661 87.04L 414.661 45.568L 441.029 45.568L 441.029 43.008L 414.661 43.008Z"/>
</defs>
</svg>
